<?xml version="1.0" encoding="UTF-8" standalone="no" ?>
<!DOCTYPE svg PUBLIC "-//W3C//DTD SVG 1.1//EN" "http://www.w3.org/Graphics/SVG/1.1/DTD/svg11.dtd">
<svg xmlns="http://www.w3.org/2000/svg" xmlns:xlink="http://www.w3.org/1999/xlink" version="1.1" width="1080" height="1080" viewBox="0 0 1080 1080" xml:space="preserve">
<desc>Created with Fabric.js 5.2.4</desc>
<defs>
</defs>
<g transform="matrix(1 0 0 1 540 540)" id="dfb40848-55da-4b58-b1bc-41ad9d622d08"  >
<rect style="stroke: none; stroke-width: 1; stroke-dasharray: none; stroke-linecap: butt; stroke-dashoffset: 0; stroke-linejoin: miter; stroke-miterlimit: 4; fill: rgb(255,255,255); fill-rule: nonzero; opacity: 1; visibility: hidden;" vector-effect="non-scaling-stroke"  x="-540" y="-540" rx="0" ry="0" width="1080" height="1080" />
</g>
<g transform="matrix(1 0 0 1 540 540)" id="5c25cbad-c4a9-4ea8-827d-b45c9d3b8ab7"  >
</g>
<g transform="matrix(1 0 0 1 540 540)" id="7e3f61b9-1bde-4beb-ac3c-5fd023cce02a"  >
<path style="stroke: rgb(0,0,0); stroke-width: 0; stroke-dasharray: none; stroke-linecap: butt; stroke-dashoffset: 0; stroke-linejoin: miter; stroke-miterlimit: 4; fill: rgb(237,175,184); fill-rule: nonzero; opacity: 1;" vector-effect="non-scaling-stroke"  transform=" translate(-512.64, -511.14)" d="M 714.07688 108.265796 C 635.740744 108.265796 561.906132 143.390781 512.639055 200.481034 C 463.371978 143.389758 389.53941299999997 108.265796 311.20123 108.265796 C 172.40714 108.265796 64.999899 213.639728 64.999899 349.768105 C 64.999899 516.628414 217.171671 650.548496 447.72255700000005 856.924797 L 512.6390560000001 914.017096 L 577.5555550000001 856.924797 C 808.108486 650.548496 960.279235 516.628414 960.279235 349.768105 C 960.279235 213.639728 852.871993 108.265796 714.07688 108.265796 L 714.07688 108.265796 z M 540.268322 799.156092 L 531.175223 807.2872829999999 L 512.6400779999999 823.5926439999998 L 494.1059559999999 807.2872829999999 L 485.05685899999986 799.156092 C 376.5127239999999 702.0443339999999 282.8321109999998 618.177228 220.84533799999986 543.184233 C 160.69335299999986 470.3330179999999 133.85203099999984 410.6834769999999 133.85203099999984 349.76708199999996 C 133.85203099999984 301.78937099999996 151.99422699999985 257.59482299999996 184.91091699999984 225.31155899999996 C 217.69764799999984 193.13778899999997 262.5491579999998 175.41003199999994 311.20327499999985 175.41003199999994 C 367.46362599999986 175.41003199999994 423.07008499999984 200.94049799999993 459.9664139999999 243.69423099999995 L 512.6421239999999 304.80709999999993 L 565.3198799999999 243.69423099999995 C 602.2151849999999 200.94049799999993 657.8195969999999 175.41003199999994 714.0799489999999 175.41003199999994 C 762.7350889999999 175.41003199999994 807.586599 193.13778899999994 840.372307 225.31155899999993 C 873.290021 257.5948229999999 891.431193 301.78937099999996 891.431193 349.76708199999996 C 891.431193 410.68245299999995 864.589871 470.33199499999995 804.43891 543.184233 C 742.449068 618.177228 648.767432 702.044334 540.268322 799.156092 L 540.268322 799.156092 z M 540.268322 799.156092" stroke-linecap="round" />
</g>
<g transform="matrix(6.87 0 0 6.87 377.09 418.22)" id="83b56404-9c0e-4271-9d06-d5af3730406d"  >
<circle style="stroke: rgb(0,0,0); stroke-width: 0; stroke-dasharray: none; stroke-linecap: butt; stroke-dashoffset: 0; stroke-linejoin: miter; stroke-miterlimit: 4; fill: rgb(237,175,184); fill-rule: nonzero; opacity: 1;" vector-effect="non-scaling-stroke"  cx="0" cy="0" r="35" />
</g>
<g transform="matrix(6.77 0 0 6.77 749.18 417.71)" id="afa44a35-6bea-45f8-9fc2-a1c7239f41c9"  >
<circle style="stroke: rgb(0,0,0); stroke-width: 0; stroke-dasharray: none; stroke-linecap: butt; stroke-dashoffset: 0; stroke-linejoin: miter; stroke-miterlimit: 4; fill: rgb(237,175,184); fill-rule: nonzero; opacity: 1;" vector-effect="non-scaling-stroke"  cx="0" cy="0" r="35" />
</g>
<g transform="matrix(-5.96 0 0 -5.96 540 717.01)" id="6b7ae7b1-aa7a-4d8c-b93a-dba2d176d1bf"  >
<polygon style="stroke: rgb(0,0,0); stroke-width: 0; stroke-dasharray: none; stroke-linecap: butt; stroke-dashoffset: 0; stroke-linejoin: miter; stroke-miterlimit: 4; fill: rgb(237,175,184); fill-rule: nonzero; opacity: 1;" vector-effect="non-scaling-stroke"  points="-37.43,32.41 0,-32.41 37.43,32.41 " />
</g>
<g transform="matrix(-5.67 1.85 -1.85 -5.67 475.08 696.77)"  >
<polygon style="stroke: rgb(0,0,0); stroke-width: 0; stroke-dasharray: none; stroke-linecap: butt; stroke-dashoffset: 0; stroke-linejoin: miter; stroke-miterlimit: 4; fill: rgb(237,175,184); fill-rule: nonzero; opacity: 1;" vector-effect="non-scaling-stroke"  points="-37.43,32.41 0,-32.41 37.43,32.41 " />
</g>
<g transform="matrix(-5.55 -2.17 2.17 -5.55 583.42 704.98)"  >
<polygon style="stroke: rgb(0,0,0); stroke-width: 0; stroke-dasharray: none; stroke-linecap: butt; stroke-dashoffset: 0; stroke-linejoin: miter; stroke-miterlimit: 4; fill: rgb(237,175,184); fill-rule: nonzero; opacity: 1;" vector-effect="non-scaling-stroke"  points="-37.43,32.41 0,-32.41 37.43,32.41 " />
</g>
</svg>